<svg width="1188" height="1053" viewBox="0 0 1188 1053" fill="none" xmlns="http://www.w3.org/2000/svg">
<rect width="1187.81" height="1053" fill="#888888"/>
<path d="M499.46 539.252C497.612 539.252 495.956 538.952 494.492 538.352C493.028 537.752 491.852 536.864 490.964 535.688C490.1 534.512 489.644 533.096 489.596 531.44H496.148C496.244 532.376 496.568 533.096 497.12 533.6C497.672 534.08 498.392 534.32 499.28 534.32C500.192 534.32 500.912 534.116 501.44 533.708C501.968 533.276 502.232 532.688 502.232 531.944C502.232 531.32 502.016 530.804 501.584 530.396C501.176 529.988 500.66 529.652 500.036 529.388C499.436 529.124 498.572 528.824 497.444 528.488C495.812 527.984 494.48 527.48 493.448 526.976C492.416 526.472 491.528 525.728 490.784 524.744C490.04 523.76 489.668 522.476 489.668 520.892C489.668 518.54 490.52 516.704 492.224 515.384C493.928 514.04 496.148 513.368 498.884 513.368C501.668 513.368 503.912 514.04 505.616 515.384C507.32 516.704 508.232 518.552 508.352 520.928H501.692C501.644 520.112 501.344 519.476 500.792 519.02C500.24 518.54 499.532 518.3 498.668 518.3C497.924 518.3 497.324 518.504 496.868 518.912C496.412 519.296 496.184 519.86 496.184 520.604C496.184 521.42 496.568 522.056 497.336 522.512C498.104 522.968 499.304 523.46 500.936 523.988C502.568 524.54 503.888 525.068 504.896 525.572C505.928 526.076 506.816 526.808 507.56 527.768C508.304 528.728 508.676 529.964 508.676 531.476C508.676 532.916 508.304 534.224 507.56 535.4C506.84 536.576 505.784 537.512 504.392 538.208C503 538.904 501.356 539.252 499.46 539.252ZM518.62 513.728V539H512.464V513.728H518.62ZM545.689 539H539.533L529.237 523.412V539H523.081V513.728H529.237L539.533 529.388V513.728H545.689V539ZM563.937 513.728V539H557.781V513.728H563.937ZM597.018 513.728V539H590.862V523.844L585.21 539H580.242L574.554 523.808V539H568.398V513.728H575.67L582.762 531.224L589.782 513.728H597.018ZM617.177 534.536H607.745L606.233 539H599.789L608.933 513.728H616.061L625.205 539H618.689L617.177 534.536ZM615.593 529.784L612.461 520.532L609.365 529.784H615.593ZM644.764 521.72C644.308 520.88 643.648 520.244 642.784 519.812C641.944 519.356 640.948 519.128 639.796 519.128C637.804 519.128 636.208 519.788 635.008 521.108C633.808 522.404 633.208 524.144 633.208 526.328C633.208 528.656 633.832 530.48 635.08 531.8C636.352 533.096 638.092 533.744 640.3 533.744C641.812 533.744 643.084 533.36 644.116 532.592C645.172 531.824 645.94 530.72 646.42 529.28H638.608V524.744H652V530.468C651.544 532.004 650.764 533.432 649.66 534.752C648.58 536.072 647.2 537.14 645.52 537.956C643.84 538.772 641.944 539.18 639.832 539.18C637.336 539.18 635.104 538.64 633.136 537.56C631.192 536.456 629.668 534.932 628.564 532.988C627.484 531.044 626.944 528.824 626.944 526.328C626.944 523.832 627.484 521.612 628.564 519.668C629.668 517.7 631.192 516.176 633.136 515.096C635.08 513.992 637.3 513.44 639.796 513.44C642.82 513.44 645.364 514.172 647.428 515.636C649.516 517.1 650.896 519.128 651.568 521.72H644.764ZM661.565 518.66V523.772H669.809V528.524H661.565V534.068H670.889V539H655.409V513.728H670.889V518.66H661.565ZM697.494 539H691.338L681.042 523.412V539H674.886V513.728H681.042L691.338 529.388V513.728H697.494V539Z" fill="#FEFEFE"/>
</svg>
